<?xml version="1.0" encoding="UTF-8"?>
<svg xmlns="http://www.w3.org/2000/svg" xmlns:xlink="http://www.w3.org/1999/xlink" width="100" height="100" viewBox="0 0 100 100">
<path fill="none" stroke-width="5.152" stroke-linecap="round" stroke-linejoin="round" stroke="rgb(47.842407%, 31.37207%, 12.548828%)" stroke-opacity="1" stroke-miterlimit="10" d="M 42.648438 71.621094 L 39.621094 87.1875 " transform="matrix(1, 0, 0, -1, 0, 100)"/>
<path fill="none" stroke-width="5.152" stroke-linecap="round" stroke-linejoin="round" stroke="rgb(47.842407%, 31.37207%, 12.548828%)" stroke-opacity="1" stroke-miterlimit="10" d="M 57.351562 71.621094 L 60.378906 87.1875 " transform="matrix(1, 0, 0, -1, 0, 100)"/>
<path fill-rule="evenodd" fill="rgb(78.822327%, 54.508972%, 22.744751%)" fill-opacity="1" stroke-width="3.22" stroke-linecap="round" stroke-linejoin="round" stroke="rgb(0%, 0%, 0%)" stroke-opacity="1" stroke-miterlimit="10" d="M 43.945312 88.050781 C 43.945312 90.4375 42.011719 92.375 39.621094 92.375 C 37.234375 92.375 35.296875 90.4375 35.296875 88.050781 C 35.296875 85.664062 37.234375 83.726562 39.621094 83.726562 C 42.011719 83.726562 43.945312 85.664062 43.945312 88.050781 " transform="matrix(1, 0, 0, -1, 0, 100)"/>
<path fill-rule="evenodd" fill="rgb(78.822327%, 54.508972%, 22.744751%)" fill-opacity="1" stroke-width="3.22" stroke-linecap="round" stroke-linejoin="round" stroke="rgb(0%, 0%, 0%)" stroke-opacity="1" stroke-miterlimit="10" d="M 64.703125 88.050781 C 64.703125 90.4375 62.765625 92.375 60.378906 92.375 C 57.988281 92.375 56.054688 90.4375 56.054688 88.050781 C 56.054688 85.664062 57.988281 83.726562 60.378906 83.726562 C 62.765625 83.726562 64.703125 85.664062 64.703125 88.050781 " transform="matrix(1, 0, 0, -1, 0, 100)"/>
<path fill-rule="evenodd" fill="rgb(95.292664%, 85.096741%, 41.960144%)" fill-opacity="1" stroke-width="3.22" stroke-linecap="round" stroke-linejoin="round" stroke="rgb(0%, 0%, 0%)" stroke-opacity="1" stroke-miterlimit="10" d="M 37.027344 66.429688 C 37.027344 68.339844 33.15625 69.890625 28.378906 69.890625 C 23.605469 69.890625 19.730469 68.339844 19.730469 66.429688 C 19.730469 64.519531 23.605469 62.972656 28.378906 62.972656 C 33.15625 62.972656 37.027344 64.519531 37.027344 66.429688 " transform="matrix(1, 0, 0, -1, 0, 100)"/>
<path fill-rule="evenodd" fill="rgb(95.292664%, 85.096741%, 41.960144%)" fill-opacity="1" stroke-width="3.22" stroke-linecap="round" stroke-linejoin="round" stroke="rgb(0%, 0%, 0%)" stroke-opacity="1" stroke-miterlimit="10" d="M 80.269531 66.429688 C 80.269531 68.339844 76.394531 69.890625 71.621094 69.890625 C 66.84375 69.890625 62.972656 68.339844 62.972656 66.429688 C 62.972656 64.519531 66.84375 62.972656 71.621094 62.972656 C 76.394531 62.972656 80.269531 64.519531 80.269531 66.429688 " transform="matrix(1, 0, 0, -1, 0, 100)"/>
<path fill-rule="evenodd" fill="rgb(95.292664%, 85.096741%, 41.960144%)" fill-opacity="1" stroke-width="3.22" stroke-linecap="round" stroke-linejoin="round" stroke="rgb(0%, 0%, 0%)" stroke-opacity="1" stroke-miterlimit="10" d="M 68.160156 43.945312 C 68.160156 62.097656 60.03125 76.808594 50 76.808594 C 39.96875 76.808594 31.839844 62.097656 31.839844 43.945312 C 31.839844 25.796875 39.96875 11.085938 50 11.085938 C 60.03125 11.085938 68.160156 25.796875 68.160156 43.945312 " transform="matrix(1, 0, 0, -1, 0, 100)"/>
<path fill-rule="evenodd" fill="rgb(78.822327%, 54.508972%, 22.744751%)" fill-opacity="1" d="M 47.40625 31.839844 C 47.40625 29.929688 45.855469 28.378906 43.945312 28.378906 C 42.035156 28.378906 40.488281 29.929688 40.488281 31.839844 C 40.488281 33.75 42.035156 35.296875 43.945312 35.296875 C 45.855469 35.296875 47.40625 33.75 47.40625 31.839844 "/>
<path fill-rule="evenodd" fill="rgb(78.822327%, 54.508972%, 22.744751%)" fill-opacity="1" d="M 59.945312 34.433594 C 59.945312 33 58.785156 31.839844 57.351562 31.839844 C 55.917969 31.839844 54.757812 33 54.757812 34.433594 C 54.757812 35.867188 55.917969 37.027344 57.351562 37.027344 C 58.785156 37.027344 59.945312 35.867188 59.945312 34.433594 "/>
<path fill-rule="evenodd" fill="rgb(78.822327%, 54.508972%, 22.744751%)" fill-opacity="1" d="M 52.160156 28.378906 C 52.160156 27.1875 51.195312 26.21875 50 26.21875 C 48.804688 26.21875 47.839844 27.1875 47.839844 28.378906 C 47.839844 29.574219 48.804688 30.542969 50 30.542969 C 51.195312 30.542969 52.160156 29.574219 52.160156 28.378906 "/>
<path fill-rule="evenodd" fill="rgb(98.431396%, 94.116211%, 76.077271%)" fill-opacity="1" stroke-width="3.22" stroke-linecap="round" stroke-linejoin="round" stroke="rgb(0%, 0%, 0%)" stroke-opacity="1" stroke-miterlimit="10" d="M 65.566406 24.488281 C 65.566406 31.414062 58.597656 37.027344 50 37.027344 C 41.402344 37.027344 34.433594 31.414062 34.433594 24.488281 C 34.433594 17.5625 41.402344 11.949219 50 11.949219 C 58.597656 11.949219 65.566406 17.5625 65.566406 24.488281 " transform="matrix(1, 0, 0, -1, 0, 100)"/>
<path fill-rule="evenodd" fill="rgb(0%, 0%, 0%)" fill-opacity="1" d="M 45.027344 46.539062 C 45.027344 44.75 43.574219 43.296875 41.785156 43.296875 C 39.992188 43.296875 38.542969 44.75 38.542969 46.539062 C 38.542969 48.332031 39.992188 49.785156 41.785156 49.785156 C 43.574219 49.785156 45.027344 48.332031 45.027344 46.539062 "/>
<path fill-rule="evenodd" fill="rgb(0%, 0%, 0%)" fill-opacity="1" d="M 61.457031 46.539062 C 61.457031 44.75 60.007812 43.296875 58.214844 43.296875 C 56.425781 43.296875 54.972656 44.75 54.972656 46.539062 C 54.972656 48.332031 56.425781 49.785156 58.214844 49.785156 C 60.007812 49.785156 61.457031 48.332031 61.457031 46.539062 "/>
<path fill-rule="evenodd" fill="rgb(0%, 0%, 0%)" fill-opacity="1" d="M 47.082031 73.78125 C 47.082031 72.527344 46.066406 71.511719 44.8125 71.511719 C 43.558594 71.511719 42.542969 72.527344 42.542969 73.78125 C 42.542969 75.035156 43.558594 76.050781 44.8125 76.050781 C 46.066406 76.050781 47.082031 75.035156 47.082031 73.78125 "/>
<path fill-rule="evenodd" fill="rgb(0%, 0%, 0%)" fill-opacity="1" d="M 57.457031 73.78125 C 57.457031 72.527344 56.441406 71.511719 55.1875 71.511719 C 53.933594 71.511719 52.917969 72.527344 52.917969 73.78125 C 52.917969 75.035156 53.933594 76.050781 55.1875 76.050781 C 56.441406 76.050781 57.457031 75.035156 57.457031 73.78125 "/>
</svg>
