<?xml version="1.0" encoding="UTF-8"?>
<svg xmlns="http://www.w3.org/2000/svg" xmlns:xlink="http://www.w3.org/1999/xlink" width="100" height="100" viewBox="0 0 100 100">
<path fill-rule="evenodd" fill="rgb(90.979004%, 28.234863%, 23.136902%)" fill-opacity="1" stroke-width="3.22" stroke-linecap="round" stroke-linejoin="round" stroke="rgb(0%, 0%, 0%)" stroke-opacity="1" stroke-miterlimit="10" d="M 47.839844 75.945312 C 47.839844 79.527344 44.933594 82.429688 41.351562 82.429688 C 37.769531 82.429688 34.867188 79.527344 34.867188 75.945312 C 34.867188 72.363281 37.769531 69.457031 41.351562 69.457031 C 44.933594 69.457031 47.839844 72.363281 47.839844 75.945312 " transform="matrix(1, 0, 0, -1, 0, 100)"/>
<path fill-rule="evenodd" fill="rgb(90.979004%, 28.234863%, 23.136902%)" fill-opacity="1" stroke-width="3.22" stroke-linecap="round" stroke-linejoin="round" stroke="rgb(0%, 0%, 0%)" stroke-opacity="1" stroke-miterlimit="10" d="M 57.351562 81.132812 C 57.351562 85.191406 54.058594 88.484375 50 88.484375 C 45.941406 88.484375 42.648438 85.191406 42.648438 81.132812 C 42.648438 77.074219 45.941406 73.78125 50 73.78125 C 54.058594 73.78125 57.351562 77.074219 57.351562 81.132812 " transform="matrix(1, 0, 0, -1, 0, 100)"/>
<path fill-rule="evenodd" fill="rgb(90.979004%, 28.234863%, 23.136902%)" fill-opacity="1" stroke-width="3.22" stroke-linecap="round" stroke-linejoin="round" stroke="rgb(0%, 0%, 0%)" stroke-opacity="1" stroke-miterlimit="10" d="M 65.132812 75.945312 C 65.132812 79.527344 62.230469 82.429688 58.648438 82.429688 C 55.066406 82.429688 52.160156 79.527344 52.160156 75.945312 C 52.160156 72.363281 55.066406 69.457031 58.648438 69.457031 C 62.230469 69.457031 65.132812 72.363281 65.132812 75.945312 " transform="matrix(1, 0, 0, -1, 0, 100)"/>
<path fill-rule="evenodd" fill="rgb(100%, 100%, 100%)" fill-opacity="1" stroke-width="3.22" stroke-linecap="round" stroke-linejoin="round" stroke="rgb(0%, 0%, 0%)" stroke-opacity="1" stroke-miterlimit="10" d="M 73.78125 46.109375 C 73.78125 63.0625 63.132812 76.808594 50 76.808594 C 36.867188 76.808594 26.21875 63.0625 26.21875 46.109375 C 26.21875 29.152344 36.867188 15.40625 50 15.40625 C 63.132812 15.40625 73.78125 29.152344 73.78125 46.109375 " transform="matrix(1, 0, 0, -1, 0, 100)"/>
<path fill="none" stroke-width="3.22" stroke-linecap="round" stroke-linejoin="round" stroke="rgb(0%, 0%, 0%)" stroke-opacity="1" stroke-miterlimit="10" d="M 26.21875 47.839844 C 20.246094 47.839844 15.40625 43 15.40625 37.027344 C 15.40625 31.058594 20.246094 26.21875 26.21875 26.21875 " transform="matrix(1, 0, 0, -1, 0, 100)"/>
<path fill="none" stroke-width="3.22" stroke-linecap="round" stroke-linejoin="round" stroke="rgb(0%, 0%, 0%)" stroke-opacity="1" stroke-miterlimit="10" d="M 73.78125 26.21875 C 79.753906 26.21875 84.59375 31.058594 84.59375 37.027344 C 84.59375 43 79.753906 47.839844 73.78125 47.839844 " transform="matrix(1, 0, 0, -1, 0, 100)"/>
<path fill-rule="evenodd" fill="rgb(0%, 0%, 0%)" fill-opacity="1" d="M 44.59375 41.351562 C 44.59375 39.5625 43.144531 38.109375 41.351562 38.109375 C 39.5625 38.109375 38.109375 39.5625 38.109375 41.351562 C 38.109375 43.144531 39.5625 44.59375 41.351562 44.59375 C 43.144531 44.59375 44.59375 43.144531 44.59375 41.351562 "/>
<path fill-rule="evenodd" fill="rgb(0%, 0%, 0%)" fill-opacity="1" d="M 61.890625 41.351562 C 61.890625 39.5625 60.4375 38.109375 58.648438 38.109375 C 56.855469 38.109375 55.40625 39.5625 55.40625 41.351562 C 55.40625 43.144531 56.855469 44.59375 58.648438 44.59375 C 60.4375 44.59375 61.890625 43.144531 61.890625 41.351562 "/>
<path fill-rule="evenodd" fill="rgb(96.076965%, 70.195007%, 13.725281%)" fill-opacity="1" stroke-width="2.576" stroke-linecap="round" stroke-linejoin="round" stroke="rgb(0%, 0%, 0%)" stroke-opacity="1" stroke-miterlimit="10" d="M 44.378906 52.59375 L 55.621094 52.59375 L 50 43.082031 Z M 44.378906 52.59375 " transform="matrix(1, 0, 0, -1, 0, 100)"/>
<path fill-rule="evenodd" fill="rgb(90.979004%, 28.234863%, 23.136902%)" fill-opacity="1" stroke-width="2.576" stroke-linecap="round" stroke-linejoin="round" stroke="rgb(0%, 0%, 0%)" stroke-opacity="1" stroke-miterlimit="10" d="M 53.027344 38.757812 C 53.027344 41.625 51.671875 43.945312 50 43.945312 C 48.328125 43.945312 46.972656 41.625 46.972656 38.757812 C 46.972656 35.890625 48.328125 33.570312 50 33.570312 C 51.671875 33.570312 53.027344 35.890625 53.027344 38.757812 " transform="matrix(1, 0, 0, -1, 0, 100)"/>
</svg>
